<svg id="Layer_1" data-name="Layer 1" xmlns="http://www.w3.org/2000/svg" viewBox="0 0 57.69 57.69"><defs><style>.cls-1{fill:none;stroke:#fff;stroke-miterlimit:10;}.cls-2{opacity:0.7;}.cls-3{fill:#fff;}</style></defs><title>plus-icon2</title><path class="cls-1" d="M408.8,387.16a28.34,28.34,0,1,0-28.34,28.34,28.34,28.34,0,0,0,28.34-28.34" transform="translate(-351.61 -358.32)"/><g class="cls-2"><path class="cls-3" d="M376.78,390.66h-5.44a1.43,1.43,0,0,1-1.43-1.43v-1.93a1.43,1.43,0,0,1,1.43-1.43h5.44a1.43,1.43,0,0,0,1.43-1.43v-5.35a1.43,1.43,0,0,1,1.43-1.43h2.06a1.43,1.43,0,0,1,1.43,1.43v5.35a1.43,1.43,0,0,0,1.43,1.43H390a1.43,1.43,0,0,1,1.43,1.43v1.93a1.43,1.43,0,0,1-1.43,1.43h-5.44a1.43,1.43,0,0,0-1.43,1.43v5.39a1.43,1.43,0,0,1-1.43,1.43h-2.06a1.43,1.43,0,0,1-1.43-1.43v-5.39A1.43,1.43,0,0,0,376.78,390.66Z" transform="translate(-351.61 -358.32)"/></g></svg>