<svg id="Layer_1" data-name="Layer 1" xmlns="http://www.w3.org/2000/svg" viewBox="0 0 56.69 56.69"><defs><style>.cls-1{fill:#fff;}.cls-2{opacity:0.7;}.cls-3{fill:#010101;}</style></defs><title>plus-icon</title><circle class="cls-1" cx="28.34" cy="28.34" r="28.34"/><g class="cls-2"><path class="cls-3" d="M270.9,367.73h-5.44A1.43,1.43,0,0,1,264,366.3v-1.93a1.43,1.43,0,0,1,1.43-1.43h5.44a1.43,1.43,0,0,0,1.43-1.43v-5.35a1.43,1.43,0,0,1,1.43-1.43h2.06a1.43,1.43,0,0,1,1.43,1.43v5.35a1.43,1.43,0,0,0,1.43,1.43h5.44a1.43,1.43,0,0,1,1.43,1.43v1.93a1.43,1.43,0,0,1-1.43,1.43H278.7a1.43,1.43,0,0,0-1.43,1.43v5.39a1.43,1.43,0,0,1-1.43,1.43h-2.06a1.43,1.43,0,0,1-1.43-1.43v-5.39A1.43,1.43,0,0,0,270.9,367.73Z" transform="translate(-246.45 -337.01)"/></g></svg>