<svg id="Layer_1" data-name="Layer 1" xmlns="http://www.w3.org/2000/svg" viewBox="0 0 57.69 57.69"><defs><style>.cls-1{fill:none;stroke:#fff;stroke-miterlimit:10;}.cls-2{fill:#fff;opacity:0.7;}</style></defs><title>zoom-icon2</title><path class="cls-1" d="M359.3,384.06A28.34,28.34,0,1,0,331,412.4a28.34,28.34,0,0,0,28.34-28.34" transform="translate(-302.11 -355.22)"/><path class="cls-2" d="M321.87,388.59a9.77,9.77,0,0,0,12.69,2.11l7.24,7.24a0.6,0.6,0,0,0,.85,0l2.32-2.32a0.6,0.6,0,0,0,0-.84l-7.24-7.24A9.77,9.77,0,1,0,321.87,388.59Zm3-10.64a6.37,6.37,0,1,1,0,8.89A6.46,6.46,0,0,1,324.85,377.95Z" transform="translate(-302.11 -355.22)"/></svg>